LibreDotMatrix-Screen.ufo
<glyph name="quotedbl" format="2">
  <advance width="400"/>
  <unicode hex="0022"/>
  <outline>
    <contour>
      <point x="60.0" y="610.0" type="line"/>
      <point x="60.0" y="698.0" type="line"/>
      <point x="148.0" y="698.0" type="line"/>
      <point x="148.0" y="610.0" type="line"/>
    </contour>
    <contour>
      <point x="260.0" y="610.0" type="line"/>
      <point x="260.0" y="698.0" type="line"/>
      <point x="348.0" y="698.0" type="line"/>
      <point x="348.0" y="610.0" type="line"/>
    </contour>
    <contour>
      <point x="60.0" y="510.0" type="line"/>
      <point x="60.0" y="598.0" type="line"/>
      <point x="148.0" y="598.0" type="line"/>
      <point x="148.0" y="510.0" type="line"/>
    </contour>
    <contour>
      <point x="260.0" y="510.0" type="line"/>
      <point x="260.0" y="598.0" type="line"/>
      <point x="348.0" y="598.0" type="line"/>
      <point x="348.0" y="510.0" type="line"/>
    </contour>
    <contour>
      <point x="60.0" y="410.0" type="line"/>
      <point x="60.0" y="498.0" type="line"/>
      <point x="148.0" y="498.0" type="line"/>
      <point x="148.0" y="410.0" type="line"/>
    </contour>
    <contour>
      <point x="260.0" y="410.0" type="line"/>
      <point x="260.0" y="498.0" type="line"/>
      <point x="348.0" y="498.0" type="line"/>
      <point x="348.0" y="410.0" type="line"/>
    </contour>
  </outline>
</glyph>
<glyph name="quotesingle" format="2">
  <advance width="200"/>
  <unicode hex="0027"/>
  <outline>
    <contour>
      <point x="60" y="610" type="line"/>
      <point x="60" y="698" type="line"/>
      <point x="148" y="698" type="line"/>
      <point x="148" y="610" type="line"/>
    </contour>
    <contour>
      <point x="60" y="510" type="line"/>
      <point x="60" y="598" type="line"/>
      <point x="148" y="598" type="line"/>
      <point x="148" y="510" type="line"/>
    </contour>
    <contour>
      <point x="60" y="410" type="line"/>
      <point x="60" y="498" type="line"/>
      <point x="148" y="498" type="line"/>
      <point x="148" y="410" type="line"/>
    </contour>
  </outline>
</glyph>
<glyph name="parenleft" format="2">
  <advance width="400"/>
  <unicode hex="0028"/>
  <outline>
    <contour>
      <point x="260" y="610" type="line"/>
      <point x="260" y="698" type="line"/>
      <point x="348" y="698" type="line"/>
      <point x="348" y="610" type="line"/>
    </contour>
    <contour>
      <point x="160" y="510" type="line"/>
      <point x="160" y="598" type="line"/>
      <point x="248" y="598" type="line"/>
      <point x="248" y="510" type="line"/>
    </contour>
    <contour>
      <point x="60" y="410" type="line"/>
      <point x="60" y="498" type="line"/>
      <point x="148" y="498" type="line"/>
      <point x="148" y="410" type="line"/>
    </contour>
    <contour>
      <point x="60" y="310" type="line"/>
      <point x="60" y="398" type="line"/>
      <point x="148" y="398" type="line"/>
      <point x="148" y="310" type="line"/>
    </contour>
    <contour>
      <point x="60" y="210" type="line"/>
      <point x="60" y="298" type="line"/>
      <point x="148" y="298" type="line"/>
      <point x="148" y="210" type="line"/>
    </contour>
    <contour>
      <point x="160" y="110" type="line"/>
      <point x="160" y="198" type="line"/>
      <point x="248" y="198" type="line"/>
      <point x="248" y="110" type="line"/>
    </contour>
    <contour>
      <point x="260" y="10" type="line"/>
      <point x="260" y="98" type="line"/>
      <point x="348" y="98" type="line"/>
      <point x="348" y="10" type="line"/>
    </contour>
  </outline>
</glyph>
<glyph name="comma" format="2">
  <advance width="300"/>
  <unicode hex="002C"/>
  <outline>
    <contour>
      <point x="160" y="110" type="line"/>
      <point x="160" y="198" type="line"/>
      <point x="248" y="198" type="line"/>
      <point x="248" y="110" type="line"/>
    </contour>
    <contour>
      <point x="160" y="10" type="line"/>
      <point x="160" y="98" type="line"/>
      <point x="248" y="98" type="line"/>
      <point x="248" y="10" type="line"/>
    </contour>
    <contour>
      <point x="60" y="-90" type="line"/>
      <point x="60" y="-2" type="line"/>
      <point x="148" y="-2" type="line"/>
      <point x="148" y="-90" type="line"/>
    </contour>
  </outline>
</glyph>
<glyph name="hyphen" format="2">
  <advance width="500"/>
  <unicode hex="002D"/>
  <outline>
    <contour>
      <point x="60.0" y="310.0" type="line"/>
      <point x="60.0" y="398.0" type="line"/>
      <point x="148.0" y="398.0" type="line"/>
      <point x="148.0" y="310.0" type="line"/>
    </contour>
    <contour>
      <point x="160.0" y="310.0" type="line"/>
      <point x="160.0" y="398.0" type="line"/>
      <point x="248.0" y="398.0" type="line"/>
      <point x="248.0" y="310.0" type="line"/>
    </contour>
    <contour>
      <point x="260.0" y="310.0" type="line"/>
      <point x="260.0" y="398.0" type="line"/>
      <point x="348.0" y="398.0" type="line"/>
      <point x="348.0" y="310.0" type="line"/>
    </contour>
    <contour>
      <point x="360.0" y="310.0" type="line"/>
      <point x="360.0" y="398.0" type="line"/>
      <point x="448.0" y="398.0" type="line"/>
      <point x="448.0" y="310.0" type="line"/>
    </contour>
  </outline>
</glyph>
<glyph name="period" format="2">
  <advance width="200"/>
  <unicode hex="002E"/>
  <outline>
    <contour>
      <point x="56.0" y="6.0" type="line"/>
      <point x="56.0" y="94.0" type="line"/>
      <point x="144.0" y="94.0" type="line"/>
      <point x="144.0" y="6.0" type="line"/>
    </contour>
  </outline>
</glyph>
<glyph name="slash" format="2">
  <advance width="600"/>
  <unicode hex="002F"/>
  <outline>
    <contour>
      <point x="460" y="510" type="line"/>
      <point x="460" y="598" type="line"/>
      <point x="548" y="598" type="line"/>
      <point x="548" y="510" type="line"/>
    </contour>
    <contour>
      <point x="360" y="410" type="line"/>
      <point x="360" y="498" type="line"/>
      <point x="448" y="498" type="line"/>
      <point x="448" y="410" type="line"/>
    </contour>
    <contour>
      <point x="260" y="310" type="line"/>
      <point x="260" y="398" type="line"/>
      <point x="348" y="398" type="line"/>
      <point x="348" y="310" type="line"/>
    </contour>
    <contour>
      <point x="160" y="210" type="line"/>
      <point x="160" y="298" type="line"/>
      <point x="248" y="298" type="line"/>
      <point x="248" y="210" type="line"/>
    </contour>
    <contour>
      <point x="60" y="110" type="line"/>
      <point x="60" y="198" type="line"/>
      <point x="148" y="198" type="line"/>
      <point x="148" y="110" type="line"/>
    </contour>
  </outline>
</glyph>
<glyph name="one" format="2">
  <advance width="400"/>
  <unicode hex="0031"/>
  <outline>
    <contour>
      <point x="160" y="610" type="line"/>
      <point x="160" y="698" type="line"/>
      <point x="248" y="698" type="line"/>
      <point x="248" y="610" type="line"/>
    </contour>
    <contour>
      <point x="60" y="510" type="line"/>
      <point x="60" y="598" type="line"/>
      <point x="148" y="598" type="line"/>
      <point x="148" y="510" type="line"/>
    </contour>
    <contour>
      <point x="160" y="510" type="line"/>
      <point x="160" y="598" type="line"/>
      <point x="248" y="598" type="line"/>
      <point x="248" y="510" type="line"/>
    </contour>
    <contour>
      <point x="160" y="410" type="line"/>
      <point x="160" y="498" type="line"/>
      <point x="248" y="498" type="line"/>
      <point x="248" y="410" type="line"/>
    </contour>
    <contour>
      <point x="160" y="310" type="line"/>
      <point x="160" y="398" type="line"/>
      <point x="248" y="398" type="line"/>
      <point x="248" y="310" type="line"/>
    </contour>
    <contour>
      <point x="160" y="210" type="line"/>
      <point x="160" y="298" type="line"/>
      <point x="248" y="298" type="line"/>
      <point x="248" y="210" type="line"/>
    </contour>
    <contour>
      <point x="160" y="110" type="line"/>
      <point x="160" y="198" type="line"/>
      <point x="248" y="198" type="line"/>
      <point x="248" y="110" type="line"/>
    </contour>
    <contour>
      <point x="60" y="10" type="line"/>
      <point x="60" y="98" type="line"/>
      <point x="148" y="98" type="line"/>
      <point x="148" y="10" type="line"/>
    </contour>
    <contour>
      <point x="160" y="10" type="line"/>
      <point x="160" y="98" type="line"/>
      <point x="248" y="98" type="line"/>
      <point x="248" y="10" type="line"/>
    </contour>
    <contour>
      <point x="260" y="10" type="line"/>
      <point x="260" y="98" type="line"/>
      <point x="348" y="98" type="line"/>
      <point x="348" y="10" type="line"/>
    </contour>
  </outline>
</glyph>
<glyph name="colon" format="2">
  <advance width="200"/>
  <unicode hex="003A"/>
  <outline>
    <contour>
      <point x="60" y="410" type="line"/>
      <point x="60" y="498" type="line"/>
      <point x="148" y="498" type="line"/>
      <point x="148" y="410" type="line"/>
    </contour>
    <contour>
      <point x="60" y="10" type="line"/>
      <point x="60" y="98" type="line"/>
      <point x="148" y="98" type="line"/>
      <point x="148" y="10" type="line"/>
    </contour>
  </outline>
</glyph>
<glyph name="semicolon" format="2">
  <advance width="300"/>
  <unicode hex="003B"/>
  <outline>
    <contour>
      <point x="160.0" y="410.0" type="line"/>
      <point x="160.0" y="498.0" type="line"/>
      <point x="248.0" y="498.0" type="line"/>
      <point x="248.0" y="410.0" type="line"/>
    </contour>
    <contour>
      <point x="160.0" y="110.0" type="line"/>
      <point x="160.0" y="198.0" type="line"/>
      <point x="248.0" y="198.0" type="line"/>
      <point x="248.0" y="110.0" type="line"/>
    </contour>
    <contour>
      <point x="160.0" y="10.0" type="line"/>
      <point x="160.0" y="98.0" type="line"/>
      <point x="248.0" y="98.0" type="line"/>
      <point x="248.0" y="10.0" type="line"/>
    </contour>
    <contour>
      <point x="60.0" y="-90.0" type="line"/>
      <point x="60.0" y="-2.0" type="line"/>
      <point x="148.0" y="-2.0" type="line"/>
      <point x="148.0" y="-90.0" type="line"/>
    </contour>
  </outline>
</glyph>
<glyph name="less" format="2">
  <advance width="400"/>
  <unicode hex="003C"/>
  <outline>
    <contour>
      <point x="260" y="510" type="line"/>
      <point x="260" y="598" type="line"/>
      <point x="348" y="598" type="line"/>
      <point x="348" y="510" type="line"/>
    </contour>
    <contour>
      <point x="160" y="410" type="line"/>
      <point x="160" y="498" type="line"/>
      <point x="248" y="498" type="line"/>
      <point x="248" y="410" type="line"/>
    </contour>
    <contour>
      <point x="60" y="310" type="line"/>
      <point x="60" y="398" type="line"/>
      <point x="148" y="398" type="line"/>
      <point x="148" y="310" type="line"/>
    </contour>
    <contour>
      <point x="160" y="210" type="line"/>
      <point x="160" y="298" type="line"/>
      <point x="248" y="298" type="line"/>
      <point x="248" y="210" type="line"/>
    </contour>
    <contour>
      <point x="260" y="110" type="line"/>
      <point x="260" y="198" type="line"/>
      <point x="348" y="198" type="line"/>
      <point x="348" y="110" type="line"/>
    </contour>
  </outline>
</glyph>
<glyph name="equal" format="2">
  <advance width="600"/>
  <unicode hex="003D"/>
  <outline>
    <contour>
      <point x="56.0" y="406.0" type="line"/>
      <point x="56.0" y="494.0" type="line"/>
      <point x="144.0" y="494.0" type="line"/>
      <point x="144.0" y="406.0" type="line"/>
    </contour>
    <contour>
      <point x="156.0" y="406.0" type="line"/>
      <point x="156.0" y="494.0" type="line"/>
      <point x="244.0" y="494.0" type="line"/>
      <point x="244.0" y="406.0" type="line"/>
    </contour>
    <contour>
      <point x="256.0" y="406.0" type="line"/>
      <point x="256.0" y="494.0" type="line"/>
      <point x="344.0" y="494.0" type="line"/>
      <point x="344.0" y="406.0" type="line"/>
    </contour>
    <contour>
      <point x="356.0" y="406.0" type="line"/>
      <point x="356.0" y="494.0" type="line"/>
      <point x="444.0" y="494.0" type="line"/>
      <point x="444.0" y="406.0" type="line"/>
    </contour>
    <contour>
      <point x="456.0" y="406.0" type="line"/>
      <point x="456.0" y="494.0" type="line"/>
      <point x="544.0" y="494.0" type="line"/>
      <point x="544.0" y="406.0" type="line"/>
    </contour>
    <contour>
      <point x="56.0" y="206.0" type="line"/>
      <point x="56.0" y="294.0" type="line"/>
      <point x="144.0" y="294.0" type="line"/>
      <point x="144.0" y="206.0" type="line"/>
    </contour>
    <contour>
      <point x="156.0" y="206.0" type="line"/>
      <point x="156.0" y="294.0" type="line"/>
      <point x="244.0" y="294.0" type="line"/>
      <point x="244.0" y="206.0" type="line"/>
    </contour>
    <contour>
      <point x="256.0" y="206.0" type="line"/>
      <point x="256.0" y="294.0" type="line"/>
      <point x="344.0" y="294.0" type="line"/>
      <point x="344.0" y="206.0" type="line"/>
    </contour>
    <contour>
      <point x="356.0" y="206.0" type="line"/>
      <point x="356.0" y="294.0" type="line"/>
      <point x="444.0" y="294.0" type="line"/>
      <point x="444.0" y="206.0" type="line"/>
    </contour>
    <contour>
      <point x="456.0" y="206.0" type="line"/>
      <point x="456.0" y="294.0" type="line"/>
      <point x="544.0" y="294.0" type="line"/>
      <point x="544.0" y="206.0" type="line"/>
    </contour>
  </outline>
</glyph>
<glyph name="greater" format="2">
  <advance width="400"/>
  <unicode hex="003E"/>
  <outline>
    <contour>
      <point x="60" y="510" type="line"/>
      <point x="60" y="598" type="line"/>
      <point x="148" y="598" type="line"/>
      <point x="148" y="510" type="line"/>
    </contour>
    <contour>
      <point x="160" y="410" type="line"/>
      <point x="160" y="498" type="line"/>
      <point x="248" y="498" type="line"/>
      <point x="248" y="410" type="line"/>
    </contour>
    <contour>
      <point x="260" y="310" type="line"/>
      <point x="260" y="398" type="line"/>
      <point x="348" y="398" type="line"/>
      <point x="348" y="310" type="line"/>
    </contour>
    <contour>
      <point x="160" y="210" type="line"/>
      <point x="160" y="298" type="line"/>
      <point x="248" y="298" type="line"/>
      <point x="248" y="210" type="line"/>
    </contour>
    <contour>
      <point x="60" y="110" type="line"/>
      <point x="60" y="198" type="line"/>
      <point x="148" y="198" type="line"/>
      <point x="148" y="110" type="line"/>
    </contour>
  </outline>
</glyph>
<glyph name="K" format="2">
  <advance width="600"/>
  <unicode hex="004B"/>
  <anchor x="300" y="0" name="marks_below"/>
  <anchor x="300" y="800" name="marks_above"/>
  <outline>
    <contour>
      <point x="60" y="610" type="line"/>
      <point x="60" y="698" type="line"/>
      <point x="148" y="698" type="line"/>
      <point x="148" y="610" type="line"/>
    </contour>
    <contour>
      <point x="460" y="610" type="line"/>
      <point x="460" y="698" type="line"/>
      <point x="548" y="698" type="line"/>
      <point x="548" y="610" type="line"/>
    </contour>
    <contour>
      <point x="60" y="510" type="line"/>
      <point x="60" y="598" type="line"/>
      <point x="148" y="598" type="line"/>
      <point x="148" y="510" type="line"/>
    </contour>
    <contour>
      <point x="360" y="510" type="line"/>
      <point x="360" y="598" type="line"/>
      <point x="448" y="598" type="line"/>
      <point x="448" y="510" type="line"/>
    </contour>
    <contour>
      <point x="60" y="410" type="line"/>
      <point x="60" y="498" type="line"/>
      <point x="148" y="498" type="line"/>
      <point x="148" y="410" type="line"/>
    </contour>
    <contour>
      <point x="260" y="410" type="line"/>
      <point x="260" y="498" type="line"/>
      <point x="348" y="498" type="line"/>
      <point x="348" y="410" type="line"/>
    </contour>
    <contour>
      <point x="60" y="310" type="line"/>
      <point x="60" y="398" type="line"/>
      <point x="148" y="398" type="line"/>
      <point x="148" y="310" type="line"/>
    </contour>
    <contour>
      <point x="160" y="310" type="line"/>
      <point x="160" y="398" type="line"/>
      <point x="248" y="398" type="line"/>
      <point x="248" y="310" type="line"/>
    </contour>
    <contour>
      <point x="60" y="210" type="line"/>
      <point x="60" y="298" type="line"/>
      <point x="148" y="298" type="line"/>
      <point x="148" y="210" type="line"/>
    </contour>
    <contour>
      <point x="260" y="210" type="line"/>
      <point x="260" y="298" type="line"/>
      <point x="348" y="298" type="line"/>
      <point x="348" y="210" type="line"/>
    </contour>
    <contour>
      <point x="60" y="110" type="line"/>
      <point x="60" y="198" type="line"/>
      <point x="148" y="198" type="line"/>
      <point x="148" y="110" type="line"/>
    </contour>
    <contour>
      <point x="360" y="110" type="line"/>
      <point x="360" y="198" type="line"/>
      <point x="448" y="198" type="line"/>
      <point x="448" y="110" type="line"/>
    </contour>
    <contour>
      <point x="60" y="10" type="line"/>
      <point x="60" y="98" type="line"/>
      <point x="148" y="98" type="line"/>
      <point x="148" y="10" type="line"/>
    </contour>
    <contour>
      <point x="460" y="10" type="line"/>
      <point x="460" y="98" type="line"/>
      <point x="548" y="98" type="line"/>
      <point x="548" y="10" type="line"/>
    </contour>
  </outline>
</glyph>
<glyph name="L" format="2">
  <advance width="600"/>
  <unicode hex="004C"/>
  <outline>
    <contour>
      <point x="60.0" y="610.0" type="line"/>
      <point x="60.0" y="698.0" type="line"/>
      <point x="148.0" y="698.0" type="line"/>
      <point x="148.0" y="610.0" type="line"/>
    </contour>
    <contour>
      <point x="60.0" y="510.0" type="line"/>
      <point x="60.0" y="598.0" type="line"/>
      <point x="148.0" y="598.0" type="line"/>
      <point x="148.0" y="510.0" type="line"/>
    </contour>
    <contour>
      <point x="60.0" y="410.0" type="line"/>
      <point x="60.0" y="498.0" type="line"/>
      <point x="148.0" y="498.0" type="line"/>
      <point x="148.0" y="410.0" type="line"/>
    </contour>
    <contour>
      <point x="60.0" y="310.0" type="line"/>
      <point x="60.0" y="398.0" type="line"/>
      <point x="148.0" y="398.0" type="line"/>
      <point x="148.0" y="310.0" type="line"/>
    </contour>
    <contour>
      <point x="60.0" y="210.0" type="line"/>
      <point x="60.0" y="298.0" type="line"/>
      <point x="148.0" y="298.0" type="line"/>
      <point x="148.0" y="210.0" type="line"/>
    </contour>
    <contour>
      <point x="60.0" y="110.0" type="line"/>
      <point x="60.0" y="198.0" type="line"/>
      <point x="148.0" y="198.0" type="line"/>
      <point x="148.0" y="110.0" type="line"/>
    </contour>
    <contour>
      <point x="60.0" y="10.0" type="line"/>
      <point x="60.0" y="98.0" type="line"/>
      <point x="148.0" y="98.0" type="line"/>
      <point x="148.0" y="10.0" type="line"/>
    </contour>
    <contour>
      <point x="160.0" y="10.0" type="line"/>
      <point x="160.0" y="98.0" type="line"/>
      <point x="248.0" y="98.0" type="line"/>
      <point x="248.0" y="10.0" type="line"/>
    </contour>
    <contour>
      <point x="260.0" y="10.0" type="line"/>
      <point x="260.0" y="98.0" type="line"/>
      <point x="348.0" y="98.0" type="line"/>
      <point x="348.0" y="10.0" type="line"/>
    </contour>
    <contour>
      <point x="360.0" y="10.0" type="line"/>
      <point x="360.0" y="98.0" type="line"/>
      <point x="448.0" y="98.0" type="line"/>
      <point x="448.0" y="10.0" type="line"/>
    </contour>
    <contour>
      <point x="460.0" y="10.0" type="line"/>
      <point x="460.0" y="98.0" type="line"/>
      <point x="548.0" y="98.0" type="line"/>
      <point x="548.0" y="10.0" type="line"/>
    </contour>
  </outline>
</glyph>
<glyph name="asciicircum" format="2">
  <advance width="600"/>
  <unicode hex="005E"/>
  <outline>
    <contour>
      <point x="260" y="610" type="line"/>
      <point x="260" y="698" type="line"/>
      <point x="348" y="698" type="line"/>
      <point x="348" y="610" type="line"/>
    </contour>
    <contour>
      <point x="160" y="510" type="line"/>
      <point x="160" y="598" type="line"/>
      <point x="248" y="598" type="line"/>
      <point x="248" y="510" type="line"/>
    </contour>
    <contour>
      <point x="360" y="510" type="line"/>
      <point x="360" y="598" type="line"/>
      <point x="448" y="598" type="line"/>
      <point x="448" y="510" type="line"/>
    </contour>
    <contour>
      <point x="60" y="410" type="line"/>
      <point x="60" y="498" type="line"/>
      <point x="148" y="498" type="line"/>
      <point x="148" y="410" type="line"/>
    </contour>
    <contour>
      <point x="460" y="410" type="line"/>
      <point x="460" y="498" type="line"/>
      <point x="548" y="498" type="line"/>
      <point x="548" y="410" type="line"/>
    </contour>
  </outline>
</glyph>
<glyph name="underscore" format="2">
  <advance width="600"/>
  <unicode hex="005F"/>
  <outline>
    <contour>
      <point x="10" y="-90" type="line"/>
      <point x="10" y="-2" type="line"/>
      <point x="98" y="-2" type="line"/>
      <point x="98" y="-90" type="line"/>
    </contour>
    <contour>
      <point x="110" y="-90" type="line"/>
      <point x="110" y="-2" type="line"/>
      <point x="198" y="-2" type="line"/>
      <point x="198" y="-90" type="line"/>
    </contour>
    <contour>
      <point x="210" y="-90" type="line"/>
      <point x="210" y="-2" type="line"/>
      <point x="298" y="-2" type="line"/>
      <point x="298" y="-90" type="line"/>
    </contour>
    <contour>
      <point x="310" y="-90" type="line"/>
      <point x="310" y="-2" type="line"/>
      <point x="398" y="-2" type="line"/>
      <point x="398" y="-90" type="line"/>
    </contour>
    <contour>
      <point x="410" y="-90" type="line"/>
      <point x="410" y="-2" type="line"/>
      <point x="498" y="-2" type="line"/>
      <point x="498" y="-90" type="line"/>
    </contour>
    <contour>
      <point x="510" y="-90" type="line"/>
      <point x="510" y="-2" type="line"/>
      <point x="598" y="-2" type="line"/>
      <point x="598" y="-90" type="line"/>
    </contour>
  </outline>
</glyph>
<glyph name="grave" format="2">
  <advance width="300"/>
  <unicode hex="0060"/>
  <outline>
    <contour>
      <point x="60" y="610" type="line"/>
      <point x="60" y="698" type="line"/>
      <point x="148" y="698" type="line"/>
      <point x="148" y="610" type="line"/>
    </contour>
    <contour>
      <point x="160" y="510" type="line"/>
      <point x="160" y="598" type="line"/>
      <point x="248" y="598" type="line"/>
      <point x="248" y="510" type="line"/>
    </contour>
  </outline>
</glyph>
<glyph name="j" format="2">
  <advance width="500"/>
  <unicode hex="006A"/>
  <outline>
    <contour>
      <point x="360" y="610" type="line"/>
      <point x="360" y="698" type="line"/>
      <point x="448" y="698" type="line"/>
      <point x="448" y="610" type="line"/>
    </contour>
    <contour>
      <point x="260" y="410" type="line"/>
      <point x="260" y="498" type="line"/>
      <point x="348" y="498" type="line"/>
      <point x="348" y="410" type="line"/>
    </contour>
    <contour>
      <point x="360" y="410" type="line"/>
      <point x="360" y="498" type="line"/>
      <point x="448" y="498" type="line"/>
      <point x="448" y="410" type="line"/>
    </contour>
    <contour>
      <point x="360" y="310" type="line"/>
      <point x="360" y="398" type="line"/>
      <point x="448" y="398" type="line"/>
      <point x="448" y="310" type="line"/>
    </contour>
    <contour>
      <point x="360" y="210" type="line"/>
      <point x="360" y="298" type="line"/>
      <point x="448" y="298" type="line"/>
      <point x="448" y="210" type="line"/>
    </contour>
    <contour>
      <point x="360" y="110" type="line"/>
      <point x="360" y="198" type="line"/>
      <point x="448" y="198" type="line"/>
      <point x="448" y="110" type="line"/>
    </contour>
    <contour>
      <point x="360" y="10" type="line"/>
      <point x="360" y="98" type="line"/>
      <point x="448" y="98" type="line"/>
      <point x="448" y="10" type="line"/>
    </contour>
    <contour>
      <point x="60" y="-90" type="line"/>
      <point x="60" y="-2" type="line"/>
      <point x="148" y="-2" type="line"/>
      <point x="148" y="-90" type="line"/>
    </contour>
    <contour>
      <point x="360" y="-90" type="line"/>
      <point x="360" y="-2" type="line"/>
      <point x="448" y="-2" type="line"/>
      <point x="448" y="-90" type="line"/>
    </contour>
    <contour>
      <point x="160" y="-190" type="line"/>
      <point x="160" y="-102" type="line"/>
      <point x="248" y="-102" type="line"/>
      <point x="248" y="-190" type="line"/>
    </contour>
    <contour>
      <point x="260" y="-190" type="line"/>
      <point x="260" y="-102" type="line"/>
      <point x="348" y="-102" type="line"/>
      <point x="348" y="-190" type="line"/>
    </contour>
  </outline>
</glyph>
<glyph name="m" format="2">
  <advance width="600"/>
  <unicode hex="006D"/>
  <anchor x="300" y="0" name="marks_below"/>
  <anchor x="300" y="600" name="marks_above"/>
  <outline>
    <contour>
      <point x="60" y="410" type="line"/>
      <point x="60" y="498" type="line"/>
      <point x="148" y="498" type="line"/>
      <point x="148" y="410" type="line"/>
    </contour>
    <contour>
      <point x="160" y="410" type="line"/>
      <point x="160" y="498" type="line"/>
      <point x="248" y="498" type="line"/>
      <point x="248" y="410" type="line"/>
    </contour>
    <contour>
      <point x="360" y="410" type="line"/>
      <point x="360" y="498" type="line"/>
      <point x="448" y="498" type="line"/>
      <point x="448" y="410" type="line"/>
    </contour>
    <contour>
      <point x="60" y="310" type="line"/>
      <point x="60" y="398" type="line"/>
      <point x="148" y="398" type="line"/>
      <point x="148" y="310" type="line"/>
    </contour>
    <contour>
      <point x="260" y="310" type="line"/>
      <point x="260" y="398" type="line"/>
      <point x="348" y="398" type="line"/>
      <point x="348" y="310" type="line"/>
    </contour>
    <contour>
      <point x="460" y="310" type="line"/>
      <point x="460" y="398" type="line"/>
      <point x="548" y="398" type="line"/>
      <point x="548" y="310" type="line"/>
    </contour>
    <contour>
      <point x="60" y="210" type="line"/>
      <point x="60" y="298" type="line"/>
      <point x="148" y="298" type="line"/>
      <point x="148" y="210" type="line"/>
    </contour>
    <contour>
      <point x="260" y="210" type="line"/>
      <point x="260" y="298" type="line"/>
      <point x="348" y="298" type="line"/>
      <point x="348" y="210" type="line"/>
    </contour>
    <contour>
      <point x="460" y="210" type="line"/>
      <point x="460" y="298" type="line"/>
      <point x="548" y="298" type="line"/>
      <point x="548" y="210" type="line"/>
    </contour>
    <contour>
      <point x="60" y="110" type="line"/>
      <point x="60" y="198" type="line"/>
      <point x="148" y="198" type="line"/>
      <point x="148" y="110" type="line"/>
    </contour>
    <contour>
      <point x="260" y="110" type="line"/>
      <point x="260" y="198" type="line"/>
      <point x="348" y="198" type="line"/>
      <point x="348" y="110" type="line"/>
    </contour>
    <contour>
      <point x="460" y="110" type="line"/>
      <point x="460" y="198" type="line"/>
      <point x="548" y="198" type="line"/>
      <point x="548" y="110" type="line"/>
    </contour>
    <contour>
      <point x="60" y="10" type="line"/>
      <point x="60" y="98" type="line"/>
      <point x="148" y="98" type="line"/>
      <point x="148" y="10" type="line"/>
    </contour>
    <contour>
      <point x="460" y="10" type="line"/>
      <point x="460" y="98" type="line"/>
      <point x="548" y="98" type="line"/>
      <point x="548" y="10" type="line"/>
    </contour>
  </outline>
</glyph>
<glyph name="braceright" format="2">
  <advance width="500"/>
  <unicode hex="007D"/>
  <outline>
    <contour>
      <point x="60" y="610" type="line"/>
      <point x="60" y="698" type="line"/>
      <point x="148" y="698" type="line"/>
      <point x="148" y="610" type="line"/>
    </contour>
    <contour>
      <point x="160" y="610" type="line"/>
      <point x="160" y="698" type="line"/>
      <point x="248" y="698" type="line"/>
      <point x="248" y="610" type="line"/>
    </contour>
    <contour>
      <point x="260" y="510" type="line"/>
      <point x="260" y="598" type="line"/>
      <point x="348" y="598" type="line"/>
      <point x="348" y="510" type="line"/>
    </contour>
    <contour>
      <point x="160" y="410" type="line"/>
      <point x="160" y="498" type="line"/>
      <point x="248" y="498" type="line"/>
      <point x="248" y="410" type="line"/>
    </contour>
    <contour>
      <point x="260" y="310" type="line"/>
      <point x="260" y="398" type="line"/>
      <point x="348" y="398" type="line"/>
      <point x="348" y="310" type="line"/>
    </contour>
    <contour>
      <point x="360" y="310" type="line"/>
      <point x="360" y="398" type="line"/>
      <point x="448" y="398" type="line"/>
      <point x="448" y="310" type="line"/>
    </contour>
    <contour>
      <point x="160" y="210" type="line"/>
      <point x="160" y="298" type="line"/>
      <point x="248" y="298" type="line"/>
      <point x="248" y="210" type="line"/>
    </contour>
    <contour>
      <point x="260" y="110" type="line"/>
      <point x="260" y="198" type="line"/>
      <point x="348" y="198" type="line"/>
      <point x="348" y="110" type="line"/>
    </contour>
    <contour>
      <point x="60" y="10" type="line"/>
      <point x="60" y="98" type="line"/>
      <point x="148" y="98" type="line"/>
      <point x="148" y="10" type="line"/>
    </contour>
    <contour>
      <point x="160" y="10" type="line"/>
      <point x="160" y="98" type="line"/>
      <point x="248" y="98" type="line"/>
      <point x="248" y="10" type="line"/>
    </contour>
  </outline>
</glyph>
<glyph name="exclamdown" format="2">
  <advance width="200"/>
  <unicode hex="00A1"/>
  <outline>
    <contour>
      <point x="60" y="410" type="line"/>
      <point x="60" y="498" type="line"/>
      <point x="148" y="498" type="line"/>
      <point x="148" y="410" type="line"/>
    </contour>
    <contour>
      <point x="60" y="210" type="line"/>
      <point x="60" y="298" type="line"/>
      <point x="148" y="298" type="line"/>
      <point x="148" y="210" type="line"/>
    </contour>
    <contour>
      <point x="60" y="110" type="line"/>
      <point x="60" y="198" type="line"/>
      <point x="148" y="198" type="line"/>
      <point x="148" y="110" type="line"/>
    </contour>
    <contour>
      <point x="60" y="10" type="line"/>
      <point x="60" y="98" type="line"/>
      <point x="148" y="98" type="line"/>
      <point x="148" y="10" type="line"/>
    </contour>
    <contour>
      <point x="60" y="-90" type="line"/>
      <point x="60" y="-2" type="line"/>
      <point x="148" y="-2" type="line"/>
      <point x="148" y="-90" type="line"/>
    </contour>
    <contour>
      <point x="60" y="-190" type="line"/>
      <point x="60" y="-102" type="line"/>
      <point x="148" y="-102" type="line"/>
      <point x="148" y="-190" type="line"/>
    </contour>
  </outline>
</glyph>
<glyph name="brokenbar" format="2">
  <advance width="200"/>
  <unicode hex="00A6"/>
  <outline>
    <contour>
      <point x="60.0" y="610.0" type="line"/>
      <point x="60.0" y="698.0" type="line"/>
      <point x="148.0" y="698.0" type="line"/>
      <point x="148.0" y="610.0" type="line"/>
    </contour>
    <contour>
      <point x="60.0" y="510.0" type="line"/>
      <point x="60.0" y="598.0" type="line"/>
      <point x="148.0" y="598.0" type="line"/>
      <point x="148.0" y="510.0" type="line"/>
    </contour>
    <contour>
      <point x="60.0" y="410.0" type="line"/>
      <point x="60.0" y="498.0" type="line"/>
      <point x="148.0" y="498.0" type="line"/>
      <point x="148.0" y="410.0" type="line"/>
    </contour>
    <contour>
      <point x="60.0" y="210.0" type="line"/>
      <point x="60.0" y="298.0" type="line"/>
      <point x="148.0" y="298.0" type="line"/>
      <point x="148.0" y="210.0" type="line"/>
    </contour>
    <contour>
      <point x="60.0" y="110.0" type="line"/>
      <point x="60.0" y="198.0" type="line"/>
      <point x="148.0" y="198.0" type="line"/>
      <point x="148.0" y="110.0" type="line"/>
    </contour>
    <contour>
      <point x="60.0" y="10.0" type="line"/>
      <point x="60.0" y="98.0" type="line"/>
      <point x="148.0" y="98.0" type="line"/>
      <point x="148.0" y="10.0" type="line"/>
    </contour>
  </outline>
</glyph>
<glyph name="dieresis" format="2">
  <advance width="400"/>
  <unicode hex="00A8"/>
  <outline>
    <contour>
      <point x="60.0" y="610.0" type="line"/>
      <point x="60.0" y="698.0" type="line"/>
      <point x="148.0" y="698.0" type="line"/>
      <point x="148.0" y="610.0" type="line"/>
    </contour>
    <contour>
      <point x="260.0" y="610.0" type="line"/>
      <point x="260.0" y="698.0" type="line"/>
      <point x="348.0" y="698.0" type="line"/>
      <point x="348.0" y="610.0" type="line"/>
    </contour>
  </outline>
</glyph>
<glyph name="copyright" format="2">
  <advance width="700"/>
  <unicode hex="00A9"/>
  <outline>
    <contour>
      <point x="156.0" y="606.0" type="line"/>
      <point x="156.0" y="694.0" type="line"/>
      <point x="244.0" y="694.0" type="line"/>
      <point x="244.0" y="606.0" type="line"/>
    </contour>
    <contour>
      <point x="256.0" y="606.0" type="line"/>
      <point x="256.0" y="694.0" type="line"/>
      <point x="344.0" y="694.0" type="line"/>
      <point x="344.0" y="606.0" type="line"/>
    </contour>
    <contour>
      <point x="356.0" y="606.0" type="line"/>
      <point x="356.0" y="694.0" type="line"/>
      <point x="444.0" y="694.0" type="line"/>
      <point x="444.0" y="606.0" type="line"/>
    </contour>
    <contour>
      <point x="456.0" y="606.0" type="line"/>
      <point x="456.0" y="694.0" type="line"/>
      <point x="544.0" y="694.0" type="line"/>
      <point x="544.0" y="606.0" type="line"/>
    </contour>
    <contour>
      <point x="56.0" y="506.0" type="line"/>
      <point x="56.0" y="594.0" type="line"/>
      <point x="144.0" y="594.0" type="line"/>
      <point x="144.0" y="506.0" type="line"/>
    </contour>
    <contour>
      <point x="556.0" y="506.0" type="line"/>
      <point x="556.0" y="594.0" type="line"/>
      <point x="644.0" y="594.0" type="line"/>
      <point x="644.0" y="506.0" type="line"/>
    </contour>
    <contour>
      <point x="56.0" y="406.0" type="line"/>
      <point x="56.0" y="494.0" type="line"/>
      <point x="144.0" y="494.0" type="line"/>
      <point x="144.0" y="406.0" type="line"/>
    </contour>
    <contour>
      <point x="256.0" y="406.0" type="line"/>
      <point x="256.0" y="494.0" type="line"/>
      <point x="344.0" y="494.0" type="line"/>
      <point x="344.0" y="406.0" type="line"/>
    </contour>
    <contour>
      <point x="356.0" y="406.0" type="line"/>
      <point x="356.0" y="494.0" type="line"/>
      <point x="444.0" y="494.0" type="line"/>
      <point x="444.0" y="406.0" type="line"/>
    </contour>
    <contour>
      <point x="556.0" y="406.0" type="line"/>
      <point x="556.0" y="494.0" type="line"/>
      <point x="644.0" y="494.0" type="line"/>
      <point x="644.0" y="406.0" type="line"/>
    </contour>
    <contour>
      <point x="56.0" y="306.0" type="line"/>
      <point x="56.0" y="394.0" type="line"/>
      <point x="144.0" y="394.0" type="line"/>
      <point x="144.0" y="306.0" type="line"/>
    </contour>
    <contour>
      <point x="256.0" y="306.0" type="line"/>
      <point x="256.0" y="394.0" type="line"/>
      <point x="344.0" y="394.0" type="line"/>
      <point x="344.0" y="306.0" type="line"/>
    </contour>
    <contour>
      <point x="556.0" y="306.0" type="line"/>
      <point x="556.0" y="394.0" type="line"/>
      <point x="644.0" y="394.0" type="line"/>
      <point x="644.0" y="306.0" type="line"/>
    </contour>
    <contour>
      <point x="56.0" y="206.0" type="line"/>
      <point x="56.0" y="294.0" type="line"/>
      <point x="144.0" y="294.0" type="line"/>
      <point x="144.0" y="206.0" type="line"/>
    </contour>
    <contour>
      <point x="256.0" y="206.0" type="line"/>
      <point x="256.0" y="294.0" type="line"/>
      <point x="344.0" y="294.0" type="line"/>
      <point x="344.0" y="206.0" type="line"/>
    </contour>
    <contour>
      <point x="356.0" y="206.0" type="line"/>
      <point x="356.0" y="294.0" type="line"/>
      <point x="444.0" y="294.0" type="line"/>
      <point x="444.0" y="206.0" type="line"/>
    </contour>
    <contour>
      <point x="556.0" y="206.0" type="line"/>
      <point x="556.0" y="294.0" type="line"/>
      <point x="644.0" y="294.0" type="line"/>
      <point x="644.0" y="206.0" type="line"/>
    </contour>
    <contour>
      <point x="56.0" y="106.0" type="line"/>
      <point x="56.0" y="194.0" type="line"/>
      <point x="144.0" y="194.0" type="line"/>
      <point x="144.0" y="106.0" type="line"/>
    </contour>
    <contour>
      <point x="556.0" y="106.0" type="line"/>
      <point x="556.0" y="194.0" type="line"/>
      <point x="644.0" y="194.0" type="line"/>
      <point x="644.0" y="106.0" type="line"/>
    </contour>
    <contour>
      <point x="156.0" y="6.0" type="line"/>
      <point x="156.0" y="94.0" type="line"/>
      <point x="244.0" y="94.0" type="line"/>
      <point x="244.0" y="6.0" type="line"/>
    </contour>
    <contour>
      <point x="256.0" y="6.0" type="line"/>
      <point x="256.0" y="94.0" type="line"/>
      <point x="344.0" y="94.0" type="line"/>
      <point x="344.0" y="6.0" type="line"/>
    </contour>
    <contour>
      <point x="356.0" y="6.0" type="line"/>
      <point x="356.0" y="94.0" type="line"/>
      <point x="444.0" y="94.0" type="line"/>
      <point x="444.0" y="6.0" type="line"/>
    </contour>
    <contour>
      <point x="456.0" y="6.0" type="line"/>
      <point x="456.0" y="94.0" type="line"/>
      <point x="544.0" y="94.0" type="line"/>
      <point x="544.0" y="6.0" type="line"/>
    </contour>
  </outline>
</glyph>
<glyph name="ordfeminine" format="2">
  <advance width="500"/>
  <unicode hex="00AA"/>
  <outline>
    <contour>
      <point x="160" y="610" type="line"/>
      <point x="160" y="698" type="line"/>
      <point x="248" y="698" type="line"/>
      <point x="248" y="610" type="line"/>
    </contour>
    <contour>
      <point x="260" y="610" type="line"/>
      <point x="260" y="698" type="line"/>
      <point x="348" y="698" type="line"/>
      <point x="348" y="610" type="line"/>
    </contour>
    <contour>
      <point x="360" y="610" type="line"/>
      <point x="360" y="698" type="line"/>
      <point x="448" y="698" type="line"/>
      <point x="448" y="610" type="line"/>
    </contour>
    <contour>
      <point x="60" y="510" type="line"/>
      <point x="60" y="598" type="line"/>
      <point x="148" y="598" type="line"/>
      <point x="148" y="510" type="line"/>
    </contour>
    <contour>
      <point x="360" y="510" type="line"/>
      <point x="360" y="598" type="line"/>
      <point x="448" y="598" type="line"/>
      <point x="448" y="510" type="line"/>
    </contour>
    <contour>
      <point x="60" y="410" type="line"/>
      <point x="60" y="498" type="line"/>
      <point x="148" y="498" type="line"/>
      <point x="148" y="410" type="line"/>
    </contour>
    <contour>
      <point x="360" y="410" type="line"/>
      <point x="360" y="498" type="line"/>
      <point x="448" y="498" type="line"/>
      <point x="448" y="410" type="line"/>
    </contour>
    <contour>
      <point x="160" y="310" type="line"/>
      <point x="160" y="398" type="line"/>
      <point x="248" y="398" type="line"/>
      <point x="248" y="310" type="line"/>
    </contour>
    <contour>
      <point x="260" y="310" type="line"/>
      <point x="260" y="398" type="line"/>
      <point x="348" y="398" type="line"/>
      <point x="348" y="310" type="line"/>
    </contour>
    <contour>
      <point x="360" y="310" type="line"/>
      <point x="360" y="398" type="line"/>
      <point x="448" y="398" type="line"/>
      <point x="448" y="310" type="line"/>
    </contour>
    <contour>
      <point x="60" y="110" type="line"/>
      <point x="60" y="198" type="line"/>
      <point x="148" y="198" type="line"/>
      <point x="148" y="110" type="line"/>
    </contour>
    <contour>
      <point x="160" y="110" type="line"/>
      <point x="160" y="198" type="line"/>
      <point x="248" y="198" type="line"/>
      <point x="248" y="110" type="line"/>
    </contour>
    <contour>
      <point x="260" y="110" type="line"/>
      <point x="260" y="198" type="line"/>
      <point x="348" y="198" type="line"/>
      <point x="348" y="110" type="line"/>
    </contour>
    <contour>
      <point x="360" y="110" type="line"/>
      <point x="360" y="198" type="line"/>
      <point x="448" y="198" type="line"/>
      <point x="448" y="110" type="line"/>
    </contour>
  </outline>
</glyph>
<glyph name="uni00B2" format="2">
  <advance width="400"/>
  <unicode hex="00B2"/>
  <outline>
    <contour>
      <point x="60.0" y="610.0" type="line"/>
      <point x="60.0" y="698.0" type="line"/>
      <point x="148.0" y="698.0" type="line"/>
      <point x="148.0" y="610.0" type="line"/>
    </contour>
    <contour>
      <point x="160.0" y="610.0" type="line"/>
      <point x="160.0" y="698.0" type="line"/>
      <point x="248.0" y="698.0" type="line"/>
      <point x="248.0" y="610.0" type="line"/>
    </contour>
    <contour>
      <point x="260.0" y="510.0" type="line"/>
      <point x="260.0" y="598.0" type="line"/>
      <point x="348.0" y="598.0" type="line"/>
      <point x="348.0" y="510.0" type="line"/>
    </contour>
    <contour>
      <point x="160.0" y="410.0" type="line"/>
      <point x="160.0" y="498.0" type="line"/>
      <point x="248.0" y="498.0" type="line"/>
      <point x="248.0" y="410.0" type="line"/>
    </contour>
    <contour>
      <point x="60.0" y="310.0" type="line"/>
      <point x="60.0" y="398.0" type="line"/>
      <point x="148.0" y="398.0" type="line"/>
      <point x="148.0" y="310.0" type="line"/>
    </contour>
    <contour>
      <point x="60.0" y="210.0" type="line"/>
      <point x="60.0" y="298.0" type="line"/>
      <point x="148.0" y="298.0" type="line"/>
      <point x="148.0" y="210.0" type="line"/>
    </contour>
    <contour>
      <point x="160.0" y="210.0" type="line"/>
      <point x="160.0" y="298.0" type="line"/>
      <point x="248.0" y="298.0" type="line"/>
      <point x="248.0" y="210.0" type="line"/>
    </contour>
    <contour>
      <point x="260.0" y="210.0" type="line"/>
      <point x="260.0" y="298.0" type="line"/>
      <point x="348.0" y="298.0" type="line"/>
      <point x="348.0" y="210.0" type="line"/>
    </contour>
  </outline>
</glyph>
<glyph name="acute" format="2">
  <advance width="300"/>
  <unicode hex="00B4"/>
  <outline>
    <contour>
      <point x="160.0" y="610.0" type="line"/>
      <point x="160.0" y="698.0" type="line"/>
      <point x="248.0" y="698.0" type="line"/>
      <point x="248.0" y="610.0" type="line"/>
    </contour>
    <contour>
      <point x="60.0" y="510.0" type="line"/>
      <point x="60.0" y="598.0" type="line"/>
      <point x="148.0" y="598.0" type="line"/>
      <point x="148.0" y="510.0" type="line"/>
    </contour>
  </outline>
</glyph>
<glyph name="periodcentered" format="2">
  <advance width="200"/>
  <unicode hex="00B7"/>
  <outline>
    <contour>
      <point x="56.0" y="306.0" type="line"/>
      <point x="56.0" y="394.0" type="line"/>
      <point x="144.0" y="394.0" type="line"/>
      <point x="144.0" y="306.0" type="line"/>
    </contour>
  </outline>
</glyph>
<glyph name="cedilla" format="2">
  <advance width="300"/>
  <unicode hex="00B8"/>
  <outline>
    <contour>
      <point x="160" y="-90" type="line"/>
      <point x="160" y="-2" type="line"/>
      <point x="248" y="-2" type="line"/>
      <point x="248" y="-90" type="line"/>
    </contour>
    <contour>
      <point x="60" y="-190" type="line"/>
      <point x="60" y="-102" type="line"/>
      <point x="148" y="-102" type="line"/>
      <point x="148" y="-190" type="line"/>
    </contour>
    <contour>
      <point x="160" y="-190" type="line"/>
      <point x="160" y="-102" type="line"/>
      <point x="248" y="-102" type="line"/>
      <point x="248" y="-190" type="line"/>
    </contour>
  </outline>
</glyph>
<glyph name="questiondown" format="2">
  <advance width="600"/>
  <unicode hex="00BF"/>
  <outline>
    <contour>
      <point x="260" y="410" type="line"/>
      <point x="260" y="498" type="line"/>
      <point x="348" y="498" type="line"/>
      <point x="348" y="410" type="line"/>
    </contour>
    <contour>
      <point x="260" y="210" type="line"/>
      <point x="260" y="298" type="line"/>
      <point x="348" y="298" type="line"/>
      <point x="348" y="210" type="line"/>
    </contour>
    <contour>
      <point x="160" y="110" type="line"/>
      <point x="160" y="198" type="line"/>
      <point x="248" y="198" type="line"/>
      <point x="248" y="110" type="line"/>
    </contour>
    <contour>
      <point x="260" y="110" type="line"/>
      <point x="260" y="198" type="line"/>
      <point x="348" y="198" type="line"/>
      <point x="348" y="110" type="line"/>
    </contour>
    <contour>
      <point x="60" y="10" type="line"/>
      <point x="60" y="98" type="line"/>
      <point x="148" y="98" type="line"/>
      <point x="148" y="10" type="line"/>
    </contour>
    <contour>
      <point x="60" y="-90" type="line"/>
      <point x="60" y="-2" type="line"/>
      <point x="148" y="-2" type="line"/>
      <point x="148" y="-90" type="line"/>
    </contour>
    <contour>
      <point x="460" y="-90" type="line"/>
      <point x="460" y="-2" type="line"/>
      <point x="548" y="-2" type="line"/>
      <point x="548" y="-90" type="line"/>
    </contour>
    <contour>
      <point x="160" y="-190" type="line"/>
      <point x="160" y="-102" type="line"/>
      <point x="248" y="-102" type="line"/>
      <point x="248" y="-190" type="line"/>
    </contour>
    <contour>
      <point x="260" y="-190" type="line"/>
      <point x="260" y="-102" type="line"/>
      <point x="348" y="-102" type="line"/>
      <point x="348" y="-190" type="line"/>
    </contour>
    <contour>
      <point x="360" y="-190" type="line"/>
      <point x="360" y="-102" type="line"/>
      <point x="448" y="-102" type="line"/>
      <point x="448" y="-190" type="line"/>
    </contour>
  </outline>
</glyph>
<glyph name="uni0237" format="2">
  <advance width="500"/>
  <unicode hex="0237"/>
  <outline>
    <contour>
      <point x="260.0" y="410.0" type="line"/>
      <point x="260.0" y="498.0" type="line"/>
      <point x="348.0" y="498.0" type="line"/>
      <point x="348.0" y="410.0" type="line"/>
    </contour>
    <contour>
      <point x="360.0" y="410.0" type="line"/>
      <point x="360.0" y="498.0" type="line"/>
      <point x="448.0" y="498.0" type="line"/>
      <point x="448.0" y="410.0" type="line"/>
    </contour>
    <contour>
      <point x="360.0" y="310.0" type="line"/>
      <point x="360.0" y="398.0" type="line"/>
      <point x="448.0" y="398.0" type="line"/>
      <point x="448.0" y="310.0" type="line"/>
    </contour>
    <contour>
      <point x="360.0" y="210.0" type="line"/>
      <point x="360.0" y="298.0" type="line"/>
      <point x="448.0" y="298.0" type="line"/>
      <point x="448.0" y="210.0" type="line"/>
    </contour>
    <contour>
      <point x="360.0" y="110.0" type="line"/>
      <point x="360.0" y="198.0" type="line"/>
      <point x="448.0" y="198.0" type="line"/>
      <point x="448.0" y="110.0" type="line"/>
    </contour>
    <contour>
      <point x="360.0" y="10.0" type="line"/>
      <point x="360.0" y="98.0" type="line"/>
      <point x="448.0" y="98.0" type="line"/>
      <point x="448.0" y="10.0" type="line"/>
    </contour>
    <contour>
      <point x="60.0" y="-90.0" type="line"/>
      <point x="60.0" y="-2.0" type="line"/>
      <point x="148.0" y="-2.0" type="line"/>
      <point x="148.0" y="-90.0" type="line"/>
    </contour>
    <contour>
      <point x="360.0" y="-90.0" type="line"/>
      <point x="360.0" y="-2.0" type="line"/>
      <point x="448.0" y="-2.0" type="line"/>
      <point x="448.0" y="-90.0" type="line"/>
    </contour>
    <contour>
      <point x="160.0" y="-190.0" type="line"/>
      <point x="160.0" y="-102.0" type="line"/>
      <point x="248.0" y="-102.0" type="line"/>
      <point x="248.0" y="-190.0" type="line"/>
    </contour>
    <contour>
      <point x="260.0" y="-190.0" type="line"/>
      <point x="260.0" y="-102.0" type="line"/>
      <point x="348.0" y="-102.0" type="line"/>
      <point x="348.0" y="-190.0" type="line"/>
    </contour>
  </outline>
</glyph>
<glyph name="circumflex" format="2">
  <advance width="400"/>
  <unicode hex="02C6"/>
  <outline>
    <contour>
      <point x="160" y="710" type="line"/>
      <point x="160" y="798" type="line"/>
      <point x="248" y="798" type="line"/>
      <point x="248" y="710" type="line"/>
    </contour>
    <contour>
      <point x="60" y="610" type="line"/>
      <point x="60" y="698" type="line"/>
      <point x="148" y="698" type="line"/>
      <point x="148" y="610" type="line"/>
    </contour>
    <contour>
      <point x="260" y="610" type="line"/>
      <point x="260" y="698" type="line"/>
      <point x="348" y="698" type="line"/>
      <point x="348" y="610" type="line"/>
    </contour>
  </outline>
</glyph>
<glyph name="caron" format="2">
  <advance width="400"/>
  <unicode hex="02C7"/>
  <outline>
    <contour>
      <point x="60" y="710" type="line"/>
      <point x="60" y="798" type="line"/>
      <point x="148" y="798" type="line"/>
      <point x="148" y="710" type="line"/>
    </contour>
    <contour>
      <point x="260" y="710" type="line"/>
      <point x="260" y="798" type="line"/>
      <point x="348" y="798" type="line"/>
      <point x="348" y="710" type="line"/>
    </contour>
    <contour>
      <point x="160" y="610" type="line"/>
      <point x="160" y="698" type="line"/>
      <point x="248" y="698" type="line"/>
      <point x="248" y="610" type="line"/>
    </contour>
  </outline>
</glyph>
<glyph name="breve" format="2">
  <advance width="600"/>
  <unicode hex="02D8"/>
  <outline>
    <contour>
      <point x="60" y="710" type="line"/>
      <point x="60" y="798" type="line"/>
      <point x="148" y="798" type="line"/>
      <point x="148" y="710" type="line"/>
    </contour>
    <contour>
      <point x="460" y="710" type="line"/>
      <point x="460" y="798" type="line"/>
      <point x="548" y="798" type="line"/>
      <point x="548" y="710" type="line"/>
    </contour>
    <contour>
      <point x="160" y="610" type="line"/>
      <point x="160" y="698" type="line"/>
      <point x="248" y="698" type="line"/>
      <point x="248" y="610" type="line"/>
    </contour>
    <contour>
      <point x="260" y="610" type="line"/>
      <point x="260" y="698" type="line"/>
      <point x="348" y="698" type="line"/>
      <point x="348" y="610" type="line"/>
    </contour>
    <contour>
      <point x="360" y="610" type="line"/>
      <point x="360" y="698" type="line"/>
      <point x="448" y="698" type="line"/>
      <point x="448" y="610" type="line"/>
    </contour>
  </outline>
</glyph>
<glyph name="dotaccent" format="2">
  <advance width="200"/>
  <unicode hex="02D9"/>
  <outline>
    <contour>
      <point x="60.0" y="610.0" type="line"/>
      <point x="60.0" y="698.0" type="line"/>
      <point x="148.0" y="698.0" type="line"/>
      <point x="148.0" y="610.0" type="line"/>
    </contour>
  </outline>
</glyph>
<glyph name="ogonek" format="2">
  <advance width="300"/>
  <unicode hex="02DB"/>
  <outline>
    <contour>
      <point x="60" y="-90" type="line"/>
      <point x="60" y="-2" type="line"/>
      <point x="148" y="-2" type="line"/>
      <point x="148" y="-90" type="line"/>
    </contour>
    <contour>
      <point x="60" y="-190" type="line"/>
      <point x="60" y="-102" type="line"/>
      <point x="148" y="-102" type="line"/>
      <point x="148" y="-190" type="line"/>
    </contour>
    <contour>
      <point x="160" y="-190" type="line"/>
      <point x="160" y="-102" type="line"/>
      <point x="248" y="-102" type="line"/>
      <point x="248" y="-190" type="line"/>
    </contour>
  </outline>
</glyph>
<glyph name="uni0307" format="2">
  <advance width="0"/>
  <unicode hex="0307"/>
  <anchor x="0" y="600" name="_marks_above"/>
  <outline>
    <contour>
      <point x="-40" y="610" type="line"/>
      <point x="-40" y="698" type="line"/>
      <point x="48" y="698" type="line"/>
      <point x="48" y="610" type="line"/>
    </contour>
  </outline>
</glyph>
<glyph name="uni0328" format="2">
  <unicode hex="0328"/>
  <outline>
    <contour>
      <point x="60.0" y="-190.0" type="line"/>
      <point x="60.0" y="-102.0" type="line"/>
      <point x="148.0" y="-102.0" type="line"/>
      <point x="148.0" y="-190.0" type="line"/>
    </contour>
    <contour>
      <point x="-40.0" y="-190.0" type="line"/>
      <point x="-40.0" y="-102.0" type="line"/>
      <point x="48.0" y="-102.0" type="line"/>
      <point x="48.0" y="-190.0" type="line"/>
    </contour>
    <contour>
      <point x="-40.0" y="-90.0" type="line"/>
      <point x="-40.0" y="-2.0" type="line"/>
      <point x="48.0" y="-2.0" type="line"/>
      <point x="48.0" y="-90.0" type="line"/>
    </contour>
  </outline>
</glyph>
<glyph name="emdash" format="2">
  <advance width="600"/>
  <unicode hex="2014"/>
  <outline>
    <contour>
      <point x="10" y="310" type="line"/>
      <point x="10" y="398" type="line"/>
      <point x="98" y="398" type="line"/>
      <point x="98" y="310" type="line"/>
    </contour>
    <contour>
      <point x="110" y="310" type="line"/>
      <point x="110" y="398" type="line"/>
      <point x="198" y="398" type="line"/>
      <point x="198" y="310" type="line"/>
    </contour>
    <contour>
      <point x="210" y="310" type="line"/>
      <point x="210" y="398" type="line"/>
      <point x="298" y="398" type="line"/>
      <point x="298" y="310" type="line"/>
    </contour>
    <contour>
      <point x="310" y="310" type="line"/>
      <point x="310" y="398" type="line"/>
      <point x="398" y="398" type="line"/>
      <point x="398" y="310" type="line"/>
    </contour>
    <contour>
      <point x="410" y="310" type="line"/>
      <point x="410" y="398" type="line"/>
      <point x="498" y="398" type="line"/>
      <point x="498" y="310" type="line"/>
    </contour>
    <contour>
      <point x="510" y="310" type="line"/>
      <point x="510" y="398" type="line"/>
      <point x="598" y="398" type="line"/>
      <point x="598" y="310" type="line"/>
    </contour>
  </outline>
</glyph>
<glyph name="quoteleft" format="2">
  <advance width="300"/>
  <unicode hex="2018"/>
  <outline>
    <contour>
      <point x="160" y="610" type="line"/>
      <point x="160" y="698" type="line"/>
      <point x="248" y="698" type="line"/>
      <point x="248" y="610" type="line"/>
    </contour>
    <contour>
      <point x="60" y="510" type="line"/>
      <point x="60" y="598" type="line"/>
      <point x="148" y="598" type="line"/>
      <point x="148" y="510" type="line"/>
    </contour>
    <contour>
      <point x="60" y="410" type="line"/>
      <point x="60" y="498" type="line"/>
      <point x="148" y="498" type="line"/>
      <point x="148" y="410" type="line"/>
    </contour>
  </outline>
</glyph>
<glyph name="bullet" format="2">
  <advance width="300"/>
  <unicode hex="2022"/>
  <outline>
    <contour>
      <point x="60.0" y="410.0" type="line"/>
      <point x="60.0" y="498.0" type="line"/>
      <point x="148.0" y="498.0" type="line"/>
      <point x="148.0" y="410.0" type="line"/>
    </contour>
    <contour>
      <point x="160.0" y="410.0" type="line"/>
      <point x="160.0" y="498.0" type="line"/>
      <point x="248.0" y="498.0" type="line"/>
      <point x="248.0" y="410.0" type="line"/>
    </contour>
    <contour>
      <point x="60.0" y="310.0" type="line"/>
      <point x="60.0" y="398.0" type="line"/>
      <point x="148.0" y="398.0" type="line"/>
      <point x="148.0" y="310.0" type="line"/>
    </contour>
    <contour>
      <point x="160.0" y="310.0" type="line"/>
      <point x="160.0" y="398.0" type="line"/>
      <point x="248.0" y="398.0" type="line"/>
      <point x="248.0" y="310.0" type="line"/>
    </contour>
  </outline>
</glyph>
<glyph name="ellipsis" format="2">
  <advance width="600"/>
  <unicode hex="2026"/>
  <outline>
    <contour>
      <point x="60.0" y="10.0" type="line"/>
      <point x="60.0" y="98.0" type="line"/>
      <point x="148.0" y="98.0" type="line"/>
      <point x="148.0" y="10.0" type="line"/>
    </contour>
    <contour>
      <point x="460.0" y="10.0" type="line"/>
      <point x="460.0" y="98.0" type="line"/>
      <point x="548.0" y="98.0" type="line"/>
      <point x="548.0" y="10.0" type="line"/>
    </contour>
    <contour>
      <point x="260.0" y="10.0" type="line"/>
      <point x="260.0" y="98.0" type="line"/>
      <point x="348.0" y="98.0" type="line"/>
      <point x="348.0" y="10.0" type="line"/>
    </contour>
  </outline>
</glyph>
<glyph name="perthousand" format="2">
  <advance width="900"/>
  <unicode hex="2030"/>
  <outline>
    <contour>
      <point x="460" y="10" type="line"/>
      <point x="460" y="98" type="line"/>
      <point x="548" y="98" type="line"/>
      <point x="548" y="10" type="line"/>
    </contour>
    <contour>
      <point x="360" y="10" type="line"/>
      <point x="360" y="98" type="line"/>
      <point x="448" y="98" type="line"/>
      <point x="448" y="10" type="line"/>
    </contour>
    <contour>
      <point x="460" y="110" type="line"/>
      <point x="460" y="198" type="line"/>
      <point x="548" y="198" type="line"/>
      <point x="548" y="110" type="line"/>
    </contour>
    <contour>
      <point x="360" y="110" type="line"/>
      <point x="360" y="198" type="line"/>
      <point x="448" y="198" type="line"/>
      <point x="448" y="110" type="line"/>
    </contour>
    <contour>
      <point x="60" y="110" type="line"/>
      <point x="60" y="198" type="line"/>
      <point x="148" y="198" type="line"/>
      <point x="148" y="110" type="line"/>
    </contour>
    <contour>
      <point x="160" y="210" type="line"/>
      <point x="160" y="298" type="line"/>
      <point x="248" y="298" type="line"/>
      <point x="248" y="210" type="line"/>
    </contour>
    <contour>
      <point x="260" y="310" type="line"/>
      <point x="260" y="398" type="line"/>
      <point x="348" y="398" type="line"/>
      <point x="348" y="310" type="line"/>
    </contour>
    <contour>
      <point x="360" y="410" type="line"/>
      <point x="360" y="498" type="line"/>
      <point x="448" y="498" type="line"/>
      <point x="448" y="410" type="line"/>
    </contour>
    <contour>
      <point x="460" y="510" type="line"/>
      <point x="460" y="598" type="line"/>
      <point x="548" y="598" type="line"/>
      <point x="548" y="510" type="line"/>
    </contour>
    <contour>
      <point x="160" y="510" type="line"/>
      <point x="160" y="598" type="line"/>
      <point x="248" y="598" type="line"/>
      <point x="248" y="510" type="line"/>
    </contour>
    <contour>
      <point x="60" y="510" type="line"/>
      <point x="60" y="598" type="line"/>
      <point x="148" y="598" type="line"/>
      <point x="148" y="510" type="line"/>
    </contour>
    <contour>
      <point x="160" y="610" type="line"/>
      <point x="160" y="698" type="line"/>
      <point x="248" y="698" type="line"/>
      <point x="248" y="610" type="line"/>
    </contour>
    <contour>
      <point x="60" y="610" type="line"/>
      <point x="60" y="698" type="line"/>
      <point x="148" y="698" type="line"/>
      <point x="148" y="610" type="line"/>
    </contour>
    <contour>
      <point x="760" y="10" type="line"/>
      <point x="760" y="98" type="line"/>
      <point x="848" y="98" type="line"/>
      <point x="848" y="10" type="line"/>
    </contour>
    <contour>
      <point x="660" y="10" type="line"/>
      <point x="660" y="98" type="line"/>
      <point x="748" y="98" type="line"/>
      <point x="748" y="10" type="line"/>
    </contour>
    <contour>
      <point x="760" y="110" type="line"/>
      <point x="760" y="198" type="line"/>
      <point x="848" y="198" type="line"/>
      <point x="848" y="110" type="line"/>
    </contour>
    <contour>
      <point x="660" y="110" type="line"/>
      <point x="660" y="198" type="line"/>
      <point x="748" y="198" type="line"/>
      <point x="748" y="110" type="line"/>
    </contour>
  </outline>
</glyph>
<glyph name="guilsinglleft" format="2">
  <advance width="300"/>
  <unicode hex="2039"/>
  <outline>
    <contour>
      <point x="160" y="410" type="line"/>
      <point x="160" y="498" type="line"/>
      <point x="248" y="498" type="line"/>
      <point x="248" y="410" type="line"/>
    </contour>
    <contour>
      <point x="60" y="310" type="line"/>
      <point x="60" y="398" type="line"/>
      <point x="148" y="398" type="line"/>
      <point x="148" y="310" type="line"/>
    </contour>
    <contour>
      <point x="160" y="210" type="line"/>
      <point x="160" y="298" type="line"/>
      <point x="248" y="298" type="line"/>
      <point x="248" y="210" type="line"/>
    </contour>
  </outline>
</glyph>
<glyph name="guilsinglright" format="2">
  <advance width="300"/>
  <unicode hex="203A"/>
  <outline>
    <contour>
      <point x="60" y="410" type="line"/>
      <point x="60" y="498" type="line"/>
      <point x="148" y="498" type="line"/>
      <point x="148" y="410" type="line"/>
    </contour>
    <contour>
      <point x="160" y="310" type="line"/>
      <point x="160" y="398" type="line"/>
      <point x="248" y="398" type="line"/>
      <point x="248" y="310" type="line"/>
    </contour>
    <contour>
      <point x="60" y="210" type="line"/>
      <point x="60" y="298" type="line"/>
      <point x="148" y="298" type="line"/>
      <point x="148" y="210" type="line"/>
    </contour>
  </outline>
</glyph>
<glyph name="uni2074" format="2">
  <advance width="400"/>
  <unicode hex="2074"/>
  <outline>
    <contour>
      <point x="260" y="610" type="line"/>
      <point x="260" y="698" type="line"/>
      <point x="348" y="698" type="line"/>
      <point x="348" y="610" type="line"/>
    </contour>
    <contour>
      <point x="160" y="510" type="line"/>
      <point x="160" y="598" type="line"/>
      <point x="248" y="598" type="line"/>
      <point x="248" y="510" type="line"/>
    </contour>
    <contour>
      <point x="260" y="510" type="line"/>
      <point x="260" y="598" type="line"/>
      <point x="348" y="598" type="line"/>
      <point x="348" y="510" type="line"/>
    </contour>
    <contour>
      <point x="60" y="410" type="line"/>
      <point x="60" y="498" type="line"/>
      <point x="148" y="498" type="line"/>
      <point x="148" y="410" type="line"/>
    </contour>
    <contour>
      <point x="260" y="410" type="line"/>
      <point x="260" y="498" type="line"/>
      <point x="348" y="498" type="line"/>
      <point x="348" y="410" type="line"/>
    </contour>
    <contour>
      <point x="60" y="310" type="line"/>
      <point x="60" y="398" type="line"/>
      <point x="148" y="398" type="line"/>
      <point x="148" y="310" type="line"/>
    </contour>
    <contour>
      <point x="160" y="310" type="line"/>
      <point x="160" y="398" type="line"/>
      <point x="248" y="398" type="line"/>
      <point x="248" y="310" type="line"/>
    </contour>
    <contour>
      <point x="260" y="310" type="line"/>
      <point x="260" y="398" type="line"/>
      <point x="348" y="398" type="line"/>
      <point x="348" y="310" type="line"/>
    </contour>
    <contour>
      <point x="260" y="210" type="line"/>
      <point x="260" y="298" type="line"/>
      <point x="348" y="298" type="line"/>
      <point x="348" y="210" type="line"/>
    </contour>
  </outline>
</glyph>
<glyph name="Euro" format="2">
  <advance width="600"/>
  <unicode hex="20AC"/>
  <outline>
    <contour>
      <point x="260" y="610" type="line"/>
      <point x="260" y="698" type="line"/>
      <point x="348" y="698" type="line"/>
      <point x="348" y="610" type="line"/>
    </contour>
    <contour>
      <point x="360" y="610" type="line"/>
      <point x="360" y="698" type="line"/>
      <point x="448" y="698" type="line"/>
      <point x="448" y="610" type="line"/>
    </contour>
    <contour>
      <point x="160" y="510" type="line"/>
      <point x="160" y="598" type="line"/>
      <point x="248" y="598" type="line"/>
      <point x="248" y="510" type="line"/>
    </contour>
    <contour>
      <point x="460" y="510" type="line"/>
      <point x="460" y="598" type="line"/>
      <point x="548" y="598" type="line"/>
      <point x="548" y="510" type="line"/>
    </contour>
    <contour>
      <point x="60" y="410" type="line"/>
      <point x="60" y="498" type="line"/>
      <point x="148" y="498" type="line"/>
      <point x="148" y="410" type="line"/>
    </contour>
    <contour>
      <point x="160" y="410" type="line"/>
      <point x="160" y="498" type="line"/>
      <point x="248" y="498" type="line"/>
      <point x="248" y="410" type="line"/>
    </contour>
    <contour>
      <point x="260" y="410" type="line"/>
      <point x="260" y="498" type="line"/>
      <point x="348" y="498" type="line"/>
      <point x="348" y="410" type="line"/>
    </contour>
    <contour>
      <point x="160" y="310" type="line"/>
      <point x="160" y="398" type="line"/>
      <point x="248" y="398" type="line"/>
      <point x="248" y="310" type="line"/>
    </contour>
    <contour>
      <point x="60" y="210" type="line"/>
      <point x="60" y="298" type="line"/>
      <point x="148" y="298" type="line"/>
      <point x="148" y="210" type="line"/>
    </contour>
    <contour>
      <point x="160" y="210" type="line"/>
      <point x="160" y="298" type="line"/>
      <point x="248" y="298" type="line"/>
      <point x="248" y="210" type="line"/>
    </contour>
    <contour>
      <point x="260" y="210" type="line"/>
      <point x="260" y="298" type="line"/>
      <point x="348" y="298" type="line"/>
      <point x="348" y="210" type="line"/>
    </contour>
    <contour>
      <point x="160" y="110" type="line"/>
      <point x="160" y="198" type="line"/>
      <point x="248" y="198" type="line"/>
      <point x="248" y="110" type="line"/>
    </contour>
    <contour>
      <point x="460" y="110" type="line"/>
      <point x="460" y="198" type="line"/>
      <point x="548" y="198" type="line"/>
      <point x="548" y="110" type="line"/>
    </contour>
    <contour>
      <point x="260" y="10" type="line"/>
      <point x="260" y="98" type="line"/>
      <point x="348" y="98" type="line"/>
      <point x="348" y="10" type="line"/>
    </contour>
    <contour>
      <point x="360" y="10" type="line"/>
      <point x="360" y="98" type="line"/>
      <point x="448" y="98" type="line"/>
      <point x="448" y="10" type="line"/>
    </contour>
  </outline>
</glyph>
<glyph name="uni20BD" format="2">
  <advance width="600"/>
  <unicode hex="20BD"/>
  <outline>
    <contour>
      <point x="160" y="610" type="line"/>
      <point x="160" y="698" type="line"/>
      <point x="248" y="698" type="line"/>
      <point x="248" y="610" type="line"/>
    </contour>
    <contour>
      <point x="260" y="610" type="line"/>
      <point x="260" y="698" type="line"/>
      <point x="348" y="698" type="line"/>
      <point x="348" y="610" type="line"/>
    </contour>
    <contour>
      <point x="360" y="610" type="line"/>
      <point x="360" y="698" type="line"/>
      <point x="448" y="698" type="line"/>
      <point x="448" y="610" type="line"/>
    </contour>
    <contour>
      <point x="160" y="510" type="line"/>
      <point x="160" y="598" type="line"/>
      <point x="248" y="598" type="line"/>
      <point x="248" y="510" type="line"/>
    </contour>
    <contour>
      <point x="460" y="510" type="line"/>
      <point x="460" y="598" type="line"/>
      <point x="548" y="598" type="line"/>
      <point x="548" y="510" type="line"/>
    </contour>
    <contour>
      <point x="160" y="410" type="line"/>
      <point x="160" y="498" type="line"/>
      <point x="248" y="498" type="line"/>
      <point x="248" y="410" type="line"/>
    </contour>
    <contour>
      <point x="460" y="410" type="line"/>
      <point x="460" y="498" type="line"/>
      <point x="548" y="498" type="line"/>
      <point x="548" y="410" type="line"/>
    </contour>
    <contour>
      <point x="160" y="310" type="line"/>
      <point x="160" y="398" type="line"/>
      <point x="248" y="398" type="line"/>
      <point x="248" y="310" type="line"/>
    </contour>
    <contour>
      <point x="260" y="310" type="line"/>
      <point x="260" y="398" type="line"/>
      <point x="348" y="398" type="line"/>
      <point x="348" y="310" type="line"/>
    </contour>
    <contour>
      <point x="360" y="310" type="line"/>
      <point x="360" y="398" type="line"/>
      <point x="448" y="398" type="line"/>
      <point x="448" y="310" type="line"/>
    </contour>
    <contour>
      <point x="160" y="210" type="line"/>
      <point x="160" y="298" type="line"/>
      <point x="248" y="298" type="line"/>
      <point x="248" y="210" type="line"/>
    </contour>
    <contour>
      <point x="60" y="110" type="line"/>
      <point x="60" y="198" type="line"/>
      <point x="148" y="198" type="line"/>
      <point x="148" y="110" type="line"/>
    </contour>
    <contour>
      <point x="160" y="110" type="line"/>
      <point x="160" y="198" type="line"/>
      <point x="248" y="198" type="line"/>
      <point x="248" y="110" type="line"/>
    </contour>
    <contour>
      <point x="260" y="110" type="line"/>
      <point x="260" y="198" type="line"/>
      <point x="348" y="198" type="line"/>
      <point x="348" y="110" type="line"/>
    </contour>
    <contour>
      <point x="160" y="10" type="line"/>
      <point x="160" y="98" type="line"/>
      <point x="248" y="98" type="line"/>
      <point x="248" y="10" type="line"/>
    </contour>
  </outline>
</glyph>
<glyph name="trademark" format="2">
  <advance width="600"/>
  <unicode hex="2122"/>
  <outline>
    <contour>
      <point x="60" y="610" type="line"/>
      <point x="60" y="698" type="line"/>
      <point x="148" y="698" type="line"/>
      <point x="148" y="610" type="line"/>
    </contour>
    <contour>
      <point x="160" y="610" type="line"/>
      <point x="160" y="698" type="line"/>
      <point x="248" y="698" type="line"/>
      <point x="248" y="610" type="line"/>
    </contour>
    <contour>
      <point x="260" y="610" type="line"/>
      <point x="260" y="698" type="line"/>
      <point x="348" y="698" type="line"/>
      <point x="348" y="610" type="line"/>
    </contour>
    <contour>
      <point x="360" y="610" type="line"/>
      <point x="360" y="698" type="line"/>
      <point x="448" y="698" type="line"/>
      <point x="448" y="610" type="line"/>
    </contour>
    <contour>
      <point x="460" y="610" type="line"/>
      <point x="460" y="698" type="line"/>
      <point x="548" y="698" type="line"/>
      <point x="548" y="610" type="line"/>
    </contour>
    <contour>
      <point x="260" y="510" type="line"/>
      <point x="260" y="598" type="line"/>
      <point x="348" y="598" type="line"/>
      <point x="348" y="510" type="line"/>
    </contour>
    <contour>
      <point x="260" y="410" type="line"/>
      <point x="260" y="498" type="line"/>
      <point x="348" y="498" type="line"/>
      <point x="348" y="410" type="line"/>
    </contour>
    <contour>
      <point x="60" y="210" type="line"/>
      <point x="60" y="298" type="line"/>
      <point x="148" y="298" type="line"/>
      <point x="148" y="210" type="line"/>
    </contour>
    <contour>
      <point x="160" y="210" type="line"/>
      <point x="160" y="298" type="line"/>
      <point x="248" y="298" type="line"/>
      <point x="248" y="210" type="line"/>
    </contour>
    <contour>
      <point x="360" y="210" type="line"/>
      <point x="360" y="298" type="line"/>
      <point x="448" y="298" type="line"/>
      <point x="448" y="210" type="line"/>
    </contour>
    <contour>
      <point x="460" y="210" type="line"/>
      <point x="460" y="298" type="line"/>
      <point x="548" y="298" type="line"/>
      <point x="548" y="210" type="line"/>
    </contour>
    <contour>
      <point x="60" y="110" type="line"/>
      <point x="60" y="198" type="line"/>
      <point x="148" y="198" type="line"/>
      <point x="148" y="110" type="line"/>
    </contour>
    <contour>
      <point x="260" y="110" type="line"/>
      <point x="260" y="198" type="line"/>
      <point x="348" y="198" type="line"/>
      <point x="348" y="110" type="line"/>
    </contour>
    <contour>
      <point x="460" y="110" type="line"/>
      <point x="460" y="198" type="line"/>
      <point x="548" y="198" type="line"/>
      <point x="548" y="110" type="line"/>
    </contour>
    <contour>
      <point x="60" y="10" type="line"/>
      <point x="60" y="98" type="line"/>
      <point x="148" y="98" type="line"/>
      <point x="148" y="10" type="line"/>
    </contour>
    <contour>
      <point x="460" y="10" type="line"/>
      <point x="460" y="98" type="line"/>
      <point x="548" y="98" type="line"/>
      <point x="548" y="10" type="line"/>
    </contour>
  </outline>
</glyph>
<glyph name="estimated" format="2">
  <advance width="891"/>
  <unicode hex="212E"/>
  <outline>
    <contour>
      <point x="188.0" y="340.0" type="line"/>
      <point x="188.0" y="151.0" type="line" smooth="yes"/>
      <point x="188.0" y="134.0"/>
      <point x="195.0" y="116.0"/>
      <point x="210.0" y="101.0" type="curve" smooth="yes"/>
      <point x="272.0" y="43.0"/>
      <point x="355.0" y="7.0"/>
      <point x="446.0" y="7.0" type="curve" smooth="yes"/>
      <point x="551.0" y="7.0"/>
      <point x="644.0" y="55.0"/>
      <point x="706.0" y="127.0" type="curve"/>
      <point x="767.0" y="127.0" type="line"/>
      <point x="691.0" y="39.0"/>
      <point x="573.0" y="-15.0"/>
      <point x="446.0" y="-15.0" type="curve" smooth="yes"/>
      <point x="233.0" y="-15.0"/>
      <point x="40.0" y="137.0"/>
      <point x="40.0" y="350.0" type="curve" smooth="yes"/>
      <point x="40.0" y="563.0"/>
      <point x="233.0" y="715.0"/>
      <point x="446.0" y="715.0" type="curve" smooth="yes"/>
      <point x="665.0" y="715.0"/>
      <point x="851.0" y="564.0"/>
      <point x="851.0" y="340.0" type="curve"/>
    </contour>
    <contour>
      <point x="703.0" y="549.0" type="line" smooth="yes"/>
      <point x="703.0" y="566.0"/>
      <point x="696.0" y="584.0"/>
      <point x="681.0" y="599.0" type="curve" smooth="yes"/>
      <point x="619.0" y="657.0"/>
      <point x="537.0" y="693.0"/>
      <point x="446.0" y="693.0" type="curve" smooth="yes"/>
      <point x="355.0" y="693.0"/>
      <point x="272.0" y="657.0"/>
      <point x="210.0" y="599.0" type="curve" smooth="yes"/>
      <point x="195.0" y="584.0"/>
      <point x="188.0" y="566.0"/>
      <point x="188.0" y="549.0" type="curve" smooth="yes"/>
      <point x="188.0" y="360.0" type="line"/>
      <point x="703.0" y="360.0" type="line"/>
    </contour>
  </outline>
</glyph>
<glyph name="summation" format="2">
  <advance width="600"/>
  <unicode hex="2211"/>
  <outline>
    <contour>
      <point x="60" y="610" type="line"/>
      <point x="60" y="698" type="line"/>
      <point x="148" y="698" type="line"/>
      <point x="148" y="610" type="line"/>
    </contour>
    <contour>
      <point x="160" y="610" type="line"/>
      <point x="160" y="698" type="line"/>
      <point x="248" y="698" type="line"/>
      <point x="248" y="610" type="line"/>
    </contour>
    <contour>
      <point x="260" y="610" type="line"/>
      <point x="260" y="698" type="line"/>
      <point x="348" y="698" type="line"/>
      <point x="348" y="610" type="line"/>
    </contour>
    <contour>
      <point x="360" y="610" type="line"/>
      <point x="360" y="698" type="line"/>
      <point x="448" y="698" type="line"/>
      <point x="448" y="610" type="line"/>
    </contour>
    <contour>
      <point x="460" y="610" type="line"/>
      <point x="460" y="698" type="line"/>
      <point x="548" y="698" type="line"/>
      <point x="548" y="610" type="line"/>
    </contour>
    <contour>
      <point x="60" y="510" type="line"/>
      <point x="60" y="598" type="line"/>
      <point x="148" y="598" type="line"/>
      <point x="148" y="510" type="line"/>
    </contour>
    <contour>
      <point x="160" y="410" type="line"/>
      <point x="160" y="498" type="line"/>
      <point x="248" y="498" type="line"/>
      <point x="248" y="410" type="line"/>
    </contour>
    <contour>
      <point x="260" y="310" type="line"/>
      <point x="260" y="398" type="line"/>
      <point x="348" y="398" type="line"/>
      <point x="348" y="310" type="line"/>
    </contour>
    <contour>
      <point x="360" y="210" type="line"/>
      <point x="360" y="298" type="line"/>
      <point x="448" y="298" type="line"/>
      <point x="448" y="210" type="line"/>
    </contour>
    <contour>
      <point x="260" y="110" type="line"/>
      <point x="260" y="198" type="line"/>
      <point x="348" y="198" type="line"/>
      <point x="348" y="110" type="line"/>
    </contour>
    <contour>
      <point x="160" y="10" type="line"/>
      <point x="160" y="98" type="line"/>
      <point x="248" y="98" type="line"/>
      <point x="248" y="10" type="line"/>
    </contour>
    <contour>
      <point x="60" y="-90" type="line"/>
      <point x="60" y="-2" type="line"/>
      <point x="148" y="-2" type="line"/>
      <point x="148" y="-90" type="line"/>
    </contour>
    <contour>
      <point x="60" y="-190" type="line"/>
      <point x="60" y="-102" type="line"/>
      <point x="148" y="-102" type="line"/>
      <point x="148" y="-190" type="line"/>
    </contour>
    <contour>
      <point x="160" y="-190" type="line"/>
      <point x="160" y="-102" type="line"/>
      <point x="248" y="-102" type="line"/>
      <point x="248" y="-190" type="line"/>
    </contour>
    <contour>
      <point x="260" y="-190" type="line"/>
      <point x="260" y="-102" type="line"/>
      <point x="348" y="-102" type="line"/>
      <point x="348" y="-190" type="line"/>
    </contour>
    <contour>
      <point x="360" y="-190" type="line"/>
      <point x="360" y="-102" type="line"/>
      <point x="448" y="-102" type="line"/>
      <point x="448" y="-190" type="line"/>
    </contour>
    <contour>
      <point x="460" y="-190" type="line"/>
      <point x="460" y="-102" type="line"/>
      <point x="548" y="-102" type="line"/>
      <point x="548" y="-190" type="line"/>
    </contour>
  </outline>
</glyph>
<glyph name="uni2219" format="2">
  <advance width="200"/>
  <unicode hex="2219"/>
  <outline>
    <contour>
      <point x="60" y="310" type="line"/>
      <point x="60" y="398" type="line"/>
      <point x="148" y="398" type="line"/>
      <point x="148" y="310" type="line"/>
    </contour>
  </outline>
</glyph>
<glyph name="lessequal" format="2">
  <advance width="400"/>
  <unicode hex="2264"/>
  <outline>
    <contour>
      <point x="260.0" y="10.0" type="line"/>
      <point x="260.0" y="98.0" type="line"/>
      <point x="348.0" y="98.0" type="line"/>
      <point x="348.0" y="10.0" type="line"/>
    </contour>
    <contour>
      <point x="160.0" y="10.0" type="line"/>
      <point x="160.0" y="98.0" type="line"/>
      <point x="248.0" y="98.0" type="line"/>
      <point x="248.0" y="10.0" type="line"/>
    </contour>
    <contour>
      <point x="60.0" y="10.0" type="line"/>
      <point x="60.0" y="98.0" type="line"/>
      <point x="148.0" y="98.0" type="line"/>
      <point x="148.0" y="10.0" type="line"/>
    </contour>
    <component base="less" yOffset="100.0"/>
  </outline>
</glyph>
<glyph name="greaterequal" format="2">
  <advance width="400"/>
  <unicode hex="2265"/>
  <outline>
    <contour>
      <point x="256.0" y="6.0" type="line"/>
      <point x="256.0" y="94.0" type="line"/>
      <point x="344.0" y="94.0" type="line"/>
      <point x="344.0" y="6.0" type="line"/>
    </contour>
    <contour>
      <point x="156.0" y="6.0" type="line"/>
      <point x="156.0" y="94.0" type="line"/>
      <point x="244.0" y="94.0" type="line"/>
      <point x="244.0" y="6.0" type="line"/>
    </contour>
    <contour>
      <point x="56.0" y="6.0" type="line"/>
      <point x="56.0" y="94.0" type="line"/>
      <point x="144.0" y="94.0" type="line"/>
      <point x="144.0" y="6.0" type="line"/>
    </contour>
    <component base="greater" yOffset="100.0"/>
  </outline>
</glyph>
<glyph name="uni25CC" format="2">
  <advance width="600"/>
  <unicode hex="25CC"/>
  <anchor x="550" y="450" name="marks_aboveright"/>
  <anchor x="400" y="0" name="ogonek"/>
  <anchor x="300" y="0" name="marks_below"/>
  <anchor x="300" y="600" name="marks_above"/>
  <outline>
    <contour>
      <point x="260" y="410" type="line"/>
      <point x="260" y="498" type="line"/>
      <point x="348" y="498" type="line"/>
      <point x="348" y="410" type="line"/>
    </contour>
    <contour>
      <point x="60" y="310" type="line"/>
      <point x="60" y="398" type="line"/>
      <point x="148" y="398" type="line"/>
      <point x="148" y="310" type="line"/>
    </contour>
    <contour>
      <point x="460" y="310" type="line"/>
      <point x="460" y="398" type="line"/>
      <point x="548" y="398" type="line"/>
      <point x="548" y="310" type="line"/>
    </contour>
    <contour>
      <point x="60" y="110" type="line"/>
      <point x="60" y="198" type="line"/>
      <point x="148" y="198" type="line"/>
      <point x="148" y="110" type="line"/>
    </contour>
    <contour>
      <point x="460" y="110" type="line"/>
      <point x="460" y="198" type="line"/>
      <point x="548" y="198" type="line"/>
      <point x="548" y="110" type="line"/>
    </contour>
    <contour>
      <point x="260" y="10" type="line"/>
      <point x="260" y="98" type="line"/>
      <point x="348" y="98" type="line"/>
      <point x="348" y="10" type="line"/>
    </contour>
  </outline>
</glyph>
<glyph name="jacute" format="2">
  <advance width="300"/>
  <outline>
    <contour>
      <point x="-40" y="-190" type="line"/>
      <point x="-40" y="-102" type="line"/>
      <point x="48" y="-102" type="line"/>
      <point x="48" y="-190" type="line"/>
    </contour>
    <contour>
      <point x="-140" y="-190" type="line"/>
      <point x="-140" y="-102" type="line"/>
      <point x="-52" y="-102" type="line"/>
      <point x="-52" y="-190" type="line"/>
    </contour>
    <contour>
      <point x="60" y="-90" type="line"/>
      <point x="60" y="-2" type="line"/>
      <point x="148" y="-2" type="line"/>
      <point x="148" y="-90" type="line"/>
    </contour>
    <contour>
      <point x="60" y="10" type="line"/>
      <point x="60" y="98" type="line"/>
      <point x="148" y="98" type="line"/>
      <point x="148" y="10" type="line"/>
    </contour>
    <contour>
      <point x="60" y="110" type="line"/>
      <point x="60" y="198" type="line"/>
      <point x="148" y="198" type="line"/>
      <point x="148" y="110" type="line"/>
    </contour>
    <contour>
      <point x="60" y="210" type="line"/>
      <point x="60" y="298" type="line"/>
      <point x="148" y="298" type="line"/>
      <point x="148" y="210" type="line"/>
    </contour>
    <contour>
      <point x="60" y="310" type="line"/>
      <point x="60" y="398" type="line"/>
      <point x="148" y="398" type="line"/>
      <point x="148" y="310" type="line"/>
    </contour>
    <contour>
      <point x="60" y="410" type="line"/>
      <point x="60" y="498" type="line"/>
      <point x="148" y="498" type="line"/>
      <point x="148" y="410" type="line"/>
    </contour>
    <contour>
      <point x="-40" y="410" type="line"/>
      <point x="-40" y="498" type="line"/>
      <point x="48" y="498" type="line"/>
      <point x="48" y="410" type="line"/>
    </contour>
    <component base="acutecomb" xOffset="100"/>
  </outline>
</glyph>
<glyph name="periodcentered.loclCAT.case" format="2">
  <advance width="0"/>
  <outline>
    <contour>
      <point x="-240" y="310" type="line"/>
      <point x="-240" y="398" type="line"/>
      <point x="-152" y="398" type="line"/>
      <point x="-152" y="310" type="line"/>
    </contour>
  </outline>
</glyph>
<glyph name="periodcentered.loclCAT" format="2">
  <advance width="0"/>
  <outline>
    <contour>
      <point x="-40" y="310" type="line"/>
      <point x="-40" y="398" type="line"/>
      <point x="48" y="398" type="line"/>
      <point x="48" y="310" type="line"/>
    </contour>
  </outline>
</glyph>
